{
	"asset":{
		"generator":"Khronos glTF Blender I/O v4.1.63",
		"version":"2.0"
	},
	"extensionsUsed":[
		"KHR_materials_specular",
		"KHR_materials_ior",
		"KHR_materials_transmission"
	],
	"scene":0,
	"scenes":[
		{
			"name":"Scene",
			"nodes":[
				0,
				3,
				4
			]
		}
	],
	"nodes":[
		{
			"mesh":0,
			"name":"Cube"
		},
		{
			"mesh":1,
			"name":"pin_metal"
		},
		{
			"children":[
				1
			],
			"mesh":2,
			"name":"pin_plastic_body"
		},
		{
			"children":[
				2
			],
			"name":"plastic_pin"
		},
		{
			"mesh":3,
			"name":"06"
		}
	],
	"materials":[
		{
			"doubleSided":true,
			"name":"Material.001",
			"normalTexture":{
				"index":0,
				"scale":0.5
			},
			"pbrMetallicRoughness":{
				"baseColorTexture":{
					"index":1
				},
				"metallicRoughnessTexture":{
					"index":2
				}
			}
		},
		{
			"doubleSided":true,
			"extensions":{
				"KHR_materials_specular":{
					"specularColorFactor":[
						1.5,
						1.5,
						1.5
					]
				},
				"KHR_materials_ior":{
					"ior":1.4500000476837158
				}
			},
			"name":"metal",
			"pbrMetallicRoughness":{
				"baseColorFactor":[
					0.3031986653804779,
					0.3031986653804779,
					0.3031986653804779,
					1
				],
				"roughnessFactor":0.22499999403953552
			}
		},
		{
			"doubleSided":true,
			"extensions":{
				"KHR_materials_transmission":{
					"transmissionFactor":1
				},
				"KHR_materials_specular":{
					"specularColorFactor":[
						1.25,
						1.25,
						1.25
					]
				},
				"KHR_materials_ior":{
					"ior":1.4600000381469727
				}
			},
			"name":"transparent_plastic",
			"pbrMetallicRoughness":{
				"baseColorFactor":[
					0.7854681015014648,
					0.003251410322263837,
					0,
					1
				],
				"metallicFactor":0,
				"roughnessFactor":0.19545452296733856
			}
		},
		{
			"doubleSided":true,
			"name":"Material.005",
			"pbrMetallicRoughness":{
				"baseColorFactor":[
					0.6652774810791016,
					0.5760046243667603,
					0.5277898907661438,
					1
				],
				"metallicFactor":0,
				"roughnessFactor":0.02727273851633072
			}
		},
		{
			"doubleSided":true,
			"name":"Photo",
			"pbrMetallicRoughness":{
				"baseColorTexture":{
					"index":3
				},
				"metallicFactor":0
			}
		}
	],
	"meshes":[
		{
			"name":"Cube.001",
			"primitives":[
				{
					"attributes":{
						"POSITION":0,
						"NORMAL":1,
						"TEXCOORD_0":2
					},
					"indices":3,
					"material":0
				}
			]
		},
		{
			"name":"Cylinder.001",
			"primitives":[
				{
					"attributes":{
						"POSITION":4,
						"NORMAL":5,
						"TEXCOORD_0":6
					},
					"indices":7,
					"material":1
				}
			]
		},
		{
			"name":"Cylinder",
			"primitives":[
				{
					"attributes":{
						"POSITION":8,
						"NORMAL":9,
						"TEXCOORD_0":10
					},
					"indices":11,
					"material":2
				}
			]
		},
		{
			"name":"06",
			"primitives":[
				{
					"attributes":{
						"POSITION":12,
						"NORMAL":13,
						"TEXCOORD_0":14
					},
					"indices":15,
					"material":3
				},
				{
					"attributes":{
						"POSITION":16,
						"NORMAL":17,
						"TEXCOORD_0":18
					},
					"indices":19,
					"material":4
				}
			]
		}
	],
	"textures":[
		{
			"sampler":0,
			"source":0
		},
		{
			"sampler":0,
			"source":1
		},
		{
			"sampler":0,
			"source":2
		},
		{
			"sampler":0,
			"source":3
		}
	],
	"images":[
		{
			"mimeType":"image/png",
			"name":"Material.001_Normal.png",
			"uri":"Material_001_Normal_png.png"
		},
		{
			"mimeType":"image/png",
			"name":"Material.001_BaseColor.png",
			"uri":"Material_001_BaseColor_png.png"
		},
		{
			"mimeType":"image/png",
			"name":"Material.001_Metallic.png-Material.001_Roughness.png",
			"uri":"Material_001_Metallic_png-Material_001_Roughness_png.png"
		},
		{
			"mimeType":"image/jpeg",
			"name":"b31-92532f841b9349638d226a6c62aa9e85",
			"uri":"b31-92532f841b9349638d226a6c62aa9e85.jpg"
		}
	],
	"accessors":[
		{
			"bufferView":0,
			"componentType":5126,
			"count":272,
			"max":[
				1.8168977499008179,
				0.8149393200874329,
				0.008994129486382008
			],
			"min":[
				-1.8168977499008179,
				-0.814939558506012,
				-0.055888302624225616
			],
			"type":"VEC3"
		},
		{
			"bufferView":1,
			"componentType":5126,
			"count":272,
			"type":"VEC3"
		},
		{
			"bufferView":2,
			"componentType":5126,
			"count":272,
			"type":"VEC2"
		},
		{
			"bufferView":3,
			"componentType":5123,
			"count":660,
			"type":"SCALAR"
		},
		{
			"bufferView":4,
			"componentType":5126,
			"count":96,
			"max":[
				1.6160564422607422,
				0.7081120014190674,
				-0.0035644210875034332
			],
			"min":[
				1.613532543182373,
				0.6983194351196289,
				-0.0257374569773674
			],
			"type":"VEC3"
		},
		{
			"bufferView":5,
			"componentType":5126,
			"count":96,
			"type":"VEC3"
		},
		{
			"bufferView":6,
			"componentType":5126,
			"count":96,
			"type":"VEC2"
		},
		{
			"bufferView":7,
			"componentType":5123,
			"count":282,
			"type":"SCALAR"
		},
		{
			"bufferView":8,
			"componentType":5126,
			"count":708,
			"max":[
				1.6205294132232666,
				0.7144272923469543,
				0.004198481794446707
			],
			"min":[
				1.6101007461547852,
				0.6997952461242676,
				-0.013620506972074509
			],
			"type":"VEC3"
		},
		{
			"bufferView":9,
			"componentType":5126,
			"count":708,
			"type":"VEC3"
		},
		{
			"bufferView":10,
			"componentType":5126,
			"count":708,
			"type":"VEC2"
		},
		{
			"bufferView":11,
			"componentType":5123,
			"count":2592,
			"type":"SCALAR"
		},
		{
			"bufferView":12,
			"componentType":5126,
			"count":369,
			"max":[
				1.6625759601593018,
				0.708442211151123,
				-0.0073652141727507114
			],
			"min":[
				1.568447470664978,
				0.5964381098747253,
				-0.01778400130569935
			],
			"type":"VEC3"
		},
		{
			"bufferView":13,
			"componentType":5126,
			"count":369,
			"type":"VEC3"
		},
		{
			"bufferView":14,
			"componentType":5126,
			"count":369,
			"type":"VEC2"
		},
		{
			"bufferView":15,
			"componentType":5123,
			"count":1632,
			"type":"SCALAR"
		},
		{
			"bufferView":16,
			"componentType":5126,
			"count":25,
			"max":[
				1.656713843345642,
				0.7013306617736816,
				-0.009090743027627468
			],
			"min":[
				1.5743205547332764,
				0.6146496534347534,
				-0.01688189059495926
			],
			"type":"VEC3"
		},
		{
			"bufferView":17,
			"componentType":5126,
			"count":25,
			"type":"VEC3"
		},
		{
			"bufferView":18,
			"componentType":5126,
			"count":25,
			"type":"VEC2"
		},
		{
			"bufferView":19,
			"componentType":5123,
			"count":96,
			"type":"SCALAR"
		}
	],
	"bufferViews":[
		{
			"buffer":0,
			"byteLength":3264,
			"byteOffset":0,
			"target":34962
		},
		{
			"buffer":0,
			"byteLength":3264,
			"byteOffset":3264,
			"target":34962
		},
		{
			"buffer":0,
			"byteLength":2176,
			"byteOffset":6528,
			"target":34962
		},
		{
			"buffer":0,
			"byteLength":1320,
			"byteOffset":8704,
			"target":34963
		},
		{
			"buffer":0,
			"byteLength":1152,
			"byteOffset":10024,
			"target":34962
		},
		{
			"buffer":0,
			"byteLength":1152,
			"byteOffset":11176,
			"target":34962
		},
		{
			"buffer":0,
			"byteLength":768,
			"byteOffset":12328,
			"target":34962
		},
		{
			"buffer":0,
			"byteLength":564,
			"byteOffset":13096,
			"target":34963
		},
		{
			"buffer":0,
			"byteLength":8496,
			"byteOffset":13660,
			"target":34962
		},
		{
			"buffer":0,
			"byteLength":8496,
			"byteOffset":22156,
			"target":34962
		},
		{
			"buffer":0,
			"byteLength":5664,
			"byteOffset":30652,
			"target":34962
		},
		{
			"buffer":0,
			"byteLength":5184,
			"byteOffset":36316,
			"target":34963
		},
		{
			"buffer":0,
			"byteLength":4428,
			"byteOffset":41500,
			"target":34962
		},
		{
			"buffer":0,
			"byteLength":4428,
			"byteOffset":45928,
			"target":34962
		},
		{
			"buffer":0,
			"byteLength":2952,
			"byteOffset":50356,
			"target":34962
		},
		{
			"buffer":0,
			"byteLength":3264,
			"byteOffset":53308,
			"target":34963
		},
		{
			"buffer":0,
			"byteLength":300,
			"byteOffset":56572,
			"target":34962
		},
		{
			"buffer":0,
			"byteLength":300,
			"byteOffset":56872,
			"target":34962
		},
		{
			"buffer":0,
			"byteLength":200,
			"byteOffset":57172,
			"target":34962
		},
		{
			"buffer":0,
			"byteLength":192,
			"byteOffset":57372,
			"target":34963
		}
	],
	"samplers":[
		{
			"magFilter":9729,
			"minFilter":9987
		}
	],
	"buffers":[
		{
			"byteLength":57564,
			"uri":"Blackboard.bin"
		}
	]
}
